<?xml version="1.0" encoding="UTF-8"?>
<svg width="408px" height="88px" viewBox="0 0 408 88" version="1.1" xmlns="http://www.w3.org/2000/svg" xmlns:xlink="http://www.w3.org/1999/xlink">
    <title>Group 2</title>
    <defs>
        <polygon id="path-1" points="0 0 95 0 95 66 0 66"></polygon>
        <linearGradient x1="-85.2453433%" y1="111.058462%" x2="125.027811%" y2="6.13430723%" id="linearGradient-3">
            <stop stop-color="#3EADCF" offset="0%"></stop>
            <stop stop-color="#ABE9CD" offset="100%"></stop>
        </linearGradient>
        <polygon id="path-4" points="0 0 95 0 95 66 0 66"></polygon>
        <polygon id="path-6" points="0 0 95 0 95 66 0 66"></polygon>
        <linearGradient x1="-82.2586507%" y1="176.504406%" x2="123.370934%" y2="-40.8834459%" id="linearGradient-8">
            <stop stop-color="#3EADCF" offset="0%"></stop>
            <stop stop-color="#ABE9CD" offset="100%"></stop>
        </linearGradient>
        <linearGradient x1="82.6828082%" y1="100%" x2="147.291035%" y2="-54.0027706%" id="linearGradient-9">
            <stop stop-color="#3EADCF" offset="0%"></stop>
            <stop stop-color="#ABE9CD" offset="100%"></stop>
            <stop stop-color="#ABE9CD" offset="100%"></stop>
        </linearGradient>
        <linearGradient x1="72.8843556%" y1="100%" x2="118.122746%" y2="-54.0027706%" id="linearGradient-10">
            <stop stop-color="#3EADCF" offset="0%"></stop>
            <stop stop-color="#ABE9CD" offset="100%"></stop>
            <stop stop-color="#ABE9CD" offset="100%"></stop>
        </linearGradient>
        <linearGradient x1="51.0804234%" y1="100%" x2="53.2162326%" y2="-54.0027706%" id="linearGradient-11">
            <stop stop-color="#3EADCF" offset="0%"></stop>
            <stop stop-color="#ABE9CD" offset="100%"></stop>
            <stop stop-color="#ABE9CD" offset="100%"></stop>
        </linearGradient>
        <linearGradient x1="74.6108845%" y1="100%" x2="123.262323%" y2="-54.0027706%" id="linearGradient-12">
            <stop stop-color="#3EADCF" offset="0%"></stop>
            <stop stop-color="#ABE9CD" offset="100%"></stop>
            <stop stop-color="#ABE9CD" offset="100%"></stop>
        </linearGradient>
        <linearGradient x1="71.2206096%" y1="100%" x2="113.170064%" y2="-54.0027706%" id="linearGradient-13">
            <stop stop-color="#3EADCF" offset="0%"></stop>
            <stop stop-color="#ABE9CD" offset="100%"></stop>
            <stop stop-color="#ABE9CD" offset="100%"></stop>
        </linearGradient>
        <linearGradient x1="66.9690322%" y1="100%" x2="100.513857%" y2="-54.0027706%" id="linearGradient-14">
            <stop stop-color="#3EADCF" offset="0%"></stop>
            <stop stop-color="#ABE9CD" offset="100%"></stop>
            <stop stop-color="#ABE9CD" offset="100%"></stop>
        </linearGradient>
        <linearGradient x1="64.1974389%" y1="100%" x2="92.2633062%" y2="-54.0027706%" id="linearGradient-15">
            <stop stop-color="#3EADCF" offset="0%"></stop>
            <stop stop-color="#ABE9CD" offset="100%"></stop>
            <stop stop-color="#ABE9CD" offset="100%"></stop>
        </linearGradient>
    </defs>
    <g id="Page-1" stroke="none" stroke-width="1" fill="none" fill-rule="evenodd">
        <g id="Artboard" transform="translate(-30.000000, -190.000000)">
            <g id="Group-2" transform="translate(30.000000, 190.000000)">
                <g id="Group">
                    <g id="Group-13" transform="translate(0.000000, 22.000000)">
                        <g id="Group-6">
                            <mask id="mask-2" fill="white">
                                <use xlink:href="#path-1"></use>
                            </mask>
                            <g id="Clip-5"></g>
                            <path d="M5.95054889,16.4535398 L89.0597836,16.4535398 C89.0597836,14.6820176 89.0597836,12.9695711 89.0597836,11.2571247 C89.0586822,7.73585817 87.3655212,6.01690337 83.8956812,6.01690337 C59.6328229,6.01665305 35.3697168,6.01690337 11.1066107,6.01715369 C10.7668385,6.01715369 10.4258272,6.00714085 10.0870463,6.02941942 C7.92226857,6.1728534 6.06702805,7.94337434 5.97037513,10.1279263 C5.87818311,12.2113486 5.95054889,14.3020302 5.95054889,16.4535398 L5.95054889,16.4535398 Z M5.93714635,22.5578695 L5.93714635,23.6079664 C5.93714635,34.0380945 5.93714635,44.4682226 5.93714635,54.8981004 C5.93714635,58.2138533 7.69550594,59.9988929 10.962127,59.9991432 C35.320399,59.9997065 59.6784233,59.9997065 84.0364475,59.9991432 C87.3077773,59.9988929 89.05893,58.2191101 89.0598947,54.8955972 C89.0598947,44.4654691 89.0598947,34.0355913 89.0598947,23.6054632 L89.0598947,22.5578695 L5.93714635,22.5578695 Z M-4.95656029e-05,9.2032403 C0.310974592,8.19820119 0.504032616,7.1350876 0.953344806,6.19763518 C2.86608142,2.20851858 6.06380629,0.0887997357 10.4528404,0.0372335948 C16.5122354,-0.0338575897 22.5728695,0.0187098354 28.6327601,0.0187098354 C47.1531954,0.0187098354 65.6733829,0.0162066247 84.1935704,0.0204620829 C89.440833,0.0217136883 93.5463519,3.186523 94.7044522,8.15664789 C94.9074233,9.02801555 94.9840022,9.94819581 94.9849935,10.8460975 C95.001598,25.6200472 95.0045719,40.3942472 94.9931718,55.1684472 C94.9884631,61.4342339 90.4814628,65.99208 84.2865059,65.9940826 C59.768137,66.0025935 35.2495202,66.0010916 10.7311513,65.9948336 C5.2633218,65.9933316 1.16375079,62.5476621 0.146664619,57.1469849 C0.124607926,57.0303353 0.0500116933,56.9241992 -4.95656029e-05,56.8130566 C-4.95656029e-05,40.9432013 -4.95656029e-05,25.073346 -4.95656029e-05,9.2032403 L-4.95656029e-05,9.2032403 Z" id="Fill-4" fill="url(#linearGradient-3)" mask="url(#mask-2)"></path>
                        </g>
                        <path d="M5.82849856,16.1333333 C5.82849856,14.0172671 5.75622147,11.9610268 5.8483005,9.91192629 C5.94483497,7.76336201 7.79780178,6.02200815 9.95992641,5.88093707 C10.2982921,5.85902551 10.6388855,5.8688734 10.9782413,5.8688734 C35.2116115,5.8686272 59.4449817,5.86838101 83.6781043,5.8686272 C87.1436918,5.8686272 88.8347778,7.55926441 88.8358779,11.0225225 C88.8358779,12.7067586 88.8358779,14.3909947 88.8358779,16.1333333 L5.82849856,16.1333333 Z" id="Fill-9" fill="#FFFFFF"></path>
                        <path d="M19.4084301,50.9326561 C15.9777723,51.2117971 14.8644183,49.7784864 14.8664122,46.4171847 C14.8681619,42.96149 15.9610508,41.7987391 19.4568477,41.8 C22.8028996,41.8010106 24.1595892,43.0056579 23.9002808,46.327587 C23.8610975,46.8280722 23.9040244,47.3346146 23.8917952,47.8381284 C23.8481196,49.6550687 22.6144704,50.8920217 20.809045,50.9308894 C20.3423397,50.9407325 19.8753849,50.9324037 19.4084301,50.9326561" id="Fill-11" fill="#000000"></path>
                    </g>
                    <g id="Group-13" transform="translate(12.000000, 11.000000)">
                        <g id="Group-6">
                            <mask id="mask-5" fill="white">
                                <use xlink:href="#path-4"></use>
                            </mask>
                            <g id="Clip-5"></g>
                            <path d="M5.95054889,16.4535398 L89.0597836,16.4535398 C89.0597836,14.6820176 89.0597836,12.9695711 89.0597836,11.2571247 C89.0586822,7.73585817 87.3655212,6.01690337 83.8956812,6.01690337 C59.6328229,6.01665305 35.3697168,6.01690337 11.1066107,6.01715369 C10.7668385,6.01715369 10.4258272,6.00714085 10.0870463,6.02941942 C7.92226857,6.1728534 6.06702805,7.94337434 5.97037513,10.1279263 C5.87818311,12.2113486 5.95054889,14.3020302 5.95054889,16.4535398 L5.95054889,16.4535398 Z M5.93714635,22.5578695 L5.93714635,23.6079664 C5.93714635,34.0380945 5.93714635,44.4682226 5.93714635,54.8981004 C5.93714635,58.2138533 7.69550594,59.9988929 10.962127,59.9991432 C35.320399,59.9997065 59.6784233,59.9997065 84.0364475,59.9991432 C87.3077773,59.9988929 89.05893,58.2191101 89.0598947,54.8955972 C89.0598947,44.4654691 89.0598947,34.0355913 89.0598947,23.6054632 L89.0598947,22.5578695 L5.93714635,22.5578695 Z M-4.95656029e-05,9.2032403 C0.310974592,8.19820119 0.504032616,7.1350876 0.953344806,6.19763518 C2.86608142,2.20851858 6.06380629,0.0887997357 10.4528404,0.0372335948 C16.5122354,-0.0338575897 22.5728695,0.0187098354 28.6327601,0.0187098354 C47.1531954,0.0187098354 65.6733829,0.0162066247 84.1935704,0.0204620829 C89.440833,0.0217136883 93.5463519,3.186523 94.7044522,8.15664789 C94.9074233,9.02801555 94.9840022,9.94819581 94.9849935,10.8460975 C95.001598,25.6200472 95.0045719,40.3942472 94.9931718,55.1684472 C94.9884631,61.4342339 90.4814628,65.99208 84.2865059,65.9940826 C59.768137,66.0025935 35.2495202,66.0010916 10.7311513,65.9948336 C5.2633218,65.9933316 1.16375079,62.5476621 0.146664619,57.1469849 C0.124607926,57.0303353 0.0500116933,56.9241992 -4.95656029e-05,56.8130566 C-4.95656029e-05,40.9432013 -4.95656029e-05,25.073346 -4.95656029e-05,9.2032403 L-4.95656029e-05,9.2032403 Z" id="Fill-4" fill="url(#linearGradient-3)" mask="url(#mask-5)"></path>
                        </g>
                        <path d="M5.80152672,22.3666667 L88.8358779,22.3666667 L88.8358779,23.4130915 C88.8358779,33.8313326 88.8358779,44.2498236 88.8358779,54.6683147 C88.8348678,57.9881194 87.0855761,59.7659165 83.8179704,59.7659165 C59.4858325,59.7666667 35.1534469,59.7666667 10.821309,59.7659165 C7.55791193,59.7659165 5.80243109,57.9828686 5.80152672,54.6708151 C5.80152672,44.252324 5.80152672,33.834083 5.80152672,23.415592 L5.80152672,22.3666667 Z" id="Fill-7" fill="#FFFFFF"></path>
                        <path d="M5.82849856,16.1333333 C5.82849856,14.0172671 5.75622147,11.9610268 5.8483005,9.91192629 C5.94483497,7.76336201 7.79780178,6.02200815 9.95992641,5.88093707 C10.2982921,5.85902551 10.6388855,5.8688734 10.9782413,5.8688734 C35.2116115,5.8686272 59.4449817,5.86838101 83.6781043,5.8686272 C87.1436918,5.8686272 88.8347778,7.55926441 88.8358779,11.0225225 C88.8358779,12.7067586 88.8358779,14.3909947 88.8358779,16.1333333 L5.82849856,16.1333333 Z" id="Fill-9" fill="#FFFFFF"></path>
                        <path d="M19.4084301,50.9326561 C15.9777723,51.2117971 14.8644183,49.7784864 14.8664122,46.4171847 C14.8681619,42.96149 15.9610508,41.7987391 19.4568477,41.8 C22.8028996,41.8010106 24.1595892,43.0056579 23.9002808,46.327587 C23.8610975,46.8280722 23.9040244,47.3346146 23.8917952,47.8381284 C23.8481196,49.6550687 22.6144704,50.8920217 20.809045,50.9308894 C20.3423397,50.9407325 19.8753849,50.9324037 19.4084301,50.9326561" id="Fill-11" fill="#000000"></path>
                    </g>
                    <g id="Group-13" transform="translate(25.000000, 0.000000)">
                        <g id="Group-6">
                            <mask id="mask-7" fill="white">
                                <use xlink:href="#path-6"></use>
                            </mask>
                            <g id="Clip-5"></g>
                            <path d="M5.95054889,16.4535398 L89.0597836,16.4535398 C89.0597836,14.6820176 89.0597836,12.9695711 89.0597836,11.2571247 C89.0586822,7.73585817 87.3655212,6.01690337 83.8956812,6.01690337 C59.6328229,6.01665305 35.3697168,6.01690337 11.1066107,6.01715369 C10.7668385,6.01715369 10.4258272,6.00714085 10.0870463,6.02941942 C7.92226857,6.1728534 6.06702805,7.94337434 5.97037513,10.1279263 C5.87818311,12.2113486 5.95054889,14.3020302 5.95054889,16.4535398 L5.95054889,16.4535398 Z M5.93714635,22.5578695 L5.93714635,23.6079664 C5.93714635,34.0380945 5.93714635,44.4682226 5.93714635,54.8981004 C5.93714635,58.2138533 7.69550594,59.9988929 10.962127,59.9991432 C35.320399,59.9997065 59.6784233,59.9997065 84.0364475,59.9991432 C87.3077773,59.9988929 89.05893,58.2191101 89.0598947,54.8955972 C89.0598947,44.4654691 89.0598947,34.0355913 89.0598947,23.6054632 L89.0598947,22.5578695 L5.93714635,22.5578695 Z M-4.95656029e-05,9.2032403 C0.310974592,8.19820119 0.504032616,7.1350876 0.953344806,6.19763518 C2.86608142,2.20851858 6.06380629,0.0887997357 10.4528404,0.0372335948 C16.5122354,-0.0338575897 22.5728695,0.0187098354 28.6327601,0.0187098354 C47.1531954,0.0187098354 65.6733829,0.0162066247 84.1935704,0.0204620829 C89.440833,0.0217136883 93.5463519,3.186523 94.7044522,8.15664789 C94.9074233,9.02801555 94.9840022,9.94819581 94.9849935,10.8460975 C95.001598,25.6200472 95.0045719,40.3942472 94.9931718,55.1684472 C94.9884631,61.4342339 90.4814628,65.99208 84.2865059,65.9940826 C59.768137,66.0025935 35.2495202,66.0010916 10.7311513,65.9948336 C5.2633218,65.9933316 1.16375079,62.5476621 0.146664619,57.1469849 C0.124607926,57.0303353 0.0500116933,56.9241992 -4.95656029e-05,56.8130566 C-4.95656029e-05,40.9432013 -4.95656029e-05,25.073346 -4.95656029e-05,9.2032403 L-4.95656029e-05,9.2032403 Z" id="Fill-4" fill="url(#linearGradient-3)" mask="url(#mask-7)"></path>
                        </g>
                        <path d="M5.80152672,22.3666667 L88.8358779,22.3666667 L88.8358779,23.4130915 C88.8358779,33.8313326 88.8358779,44.2498236 88.8358779,54.6683147 C88.8348678,57.9881194 87.0855761,59.7659165 83.8179704,59.7659165 C59.4858325,59.7666667 35.1534469,59.7666667 10.821309,59.7659165 C7.55791193,59.7659165 5.80243109,57.9828686 5.80152672,54.6708151 C5.80152672,44.252324 5.80152672,33.834083 5.80152672,23.415592 L5.80152672,22.3666667 Z" id="Fill-7" fill="#FFFFFF"></path>
                        <path d="M5.82849856,16.1333333 C5.82849856,14.0172671 5.75622147,11.9610268 5.8483005,9.91192629 C5.94483497,7.76336201 7.79780178,6.02200815 9.95992641,5.88093707 C10.2982921,5.85902551 10.6388855,5.8688734 10.9782413,5.8688734 C35.2116115,5.8686272 59.4449817,5.86838101 83.6781043,5.8686272 C87.1436918,5.8686272 88.8347778,7.55926441 88.8358779,11.0225225 C88.8358779,12.7067586 88.8358779,14.3909947 88.8358779,16.1333333 L5.82849856,16.1333333 Z" id="Fill-9" fill="#FFFFFF"></path>
                        <path d="M19.4084301,50.9326561 C15.9777723,51.2117971 14.8644183,49.7784864 14.8664122,46.4171847 C14.8681619,42.96149 15.9610508,41.7987391 19.4568477,41.8 C22.8028996,41.8010106 24.1595892,43.0056579 23.9002808,46.327587 C23.8610975,46.8280722 23.9040244,47.3346146 23.8917952,47.8381284 C23.8481196,49.6550687 22.6144704,50.8920217 20.809045,50.9308894 C20.3423397,50.9407325 19.8753849,50.9324037 19.4084301,50.9326561" id="Fill-11" fill="url(#linearGradient-8)"></path>
                    </g>
                </g>
                <g id="MaiusPay" transform="translate(149.429334, 21.077057)" fill-rule="nonzero">
                    <path d="M3.64463902,44.9229433 C5.57340615,44.9229433 6.71861163,43.7026043 6.71861163,41.6585365 L6.71861163,12.0348077 L6.92957053,12.0348077 L19.074776,41.6585365 C19.7679267,43.3670111 20.8829952,44.1602315 22.5706664,44.1602315 C24.2583377,44.1602315 25.3432692,43.3670111 26.0665568,41.5975196 L38.1816253,12.0348077 L38.3925842,12.0348077 L38.3925842,41.6585365 C38.3925842,43.7026043 39.5679267,44.9229433 41.4966938,44.9229433 C43.395324,44.9229433 44.5706664,43.7026043 44.5706664,41.6585365 L44.5706664,4.25514671 C44.5706664,1.57040095 42.9131322,-0.0770566799 40.2912144,-0.0770566799 C37.9405294,-0.0770566799 36.5542281,0.99073993 35.5295705,3.52294332 L22.6912144,35.1602315 L22.4501185,35.1602315 L9.58162533,3.52294332 C8.55696779,0.960231456 7.20080341,-0.0770566799 4.91039245,-0.0770566799 C2.22820067,-0.0770566799 0.570666422,1.60090942 0.570666422,4.25514671 L0.570666422,41.6585365 C0.570666422,43.7026043 1.7158719,44.9229433 3.64463902,44.9229433 Z" id="Path" fill="url(#linearGradient-9)"></path>
                    <path d="M61.1594932,44.8926681 C65.2924541,44.8926681 69.3349122,42.6523011 71.1751357,39.1100993 L71.3259737,39.1100993 L71.3259737,41.8045947 C71.3863089,43.7422094 72.6231804,44.9229433 74.4332363,44.9229433 C76.2734597,44.9229433 77.5706664,43.6816589 77.5706664,41.6229433 L77.5706664,22.3981727 C77.5706664,16.0100993 72.653348,11.9229433 64.9606106,11.9229433 C59.2589346,11.9229433 54.4622865,14.2238608 52.8030687,17.826613 C52.4108899,18.5532185 52.2298843,19.2798241 52.2298843,19.9458791 C52.2298843,21.5807415 53.4064206,22.6706497 55.0354709,22.6706497 C56.1818396,22.6706497 57.0265323,22.2467965 57.6902195,21.2779892 C59.5002754,18.3715672 61.5818396,17.2513837 64.7192698,17.2513837 C68.7013927,17.2513837 71.0846329,19.3706497 71.0846329,22.9128516 L71.0846329,25.3651452 L62.3661971,25.8798241 C54.8544653,26.3036773 50.5706664,29.7247782 50.5706664,35.2954204 C50.5706664,41.0174387 54.9449681,44.8926681 61.1594932,44.8926681 Z M62.9393815,39.7156039 C59.4701078,39.7156039 57.1472027,37.8990901 57.1472027,35.113769 C57.1472027,32.3889984 59.3494374,30.6633103 63.2410575,30.3908332 L71.0846329,29.9064296 L71.0846329,32.4192736 C71.0846329,36.56698 67.4946888,39.7156039 62.9393815,39.7156039 Z" id="Shape" fill="url(#linearGradient-10)"></path>
                    <path d="M87.5547302,7.44833262 C89.7858059,7.44833262 91.5706664,5.74217149 91.5706664,3.67040439 C91.5706664,1.56817013 89.7858059,-0.0770566799 87.5547302,-0.0770566799 C85.355527,-0.0770566799 83.5706664,1.56817013 83.5706664,3.67040439 C83.5706664,5.74217149 85.355527,7.44833262 87.5547302,7.44833262 Z M87.5547302,44.9229433 C89.6264433,44.9229433 90.9969612,43.551921 90.9969612,41.4496867 L90.9969612,15.2174592 C90.9969612,13.0847578 89.6264433,11.7137355 87.5547302,11.7137355 C85.483017,11.7137355 84.1124991,13.0847578 84.1124991,15.2174592 L84.1124991,41.4496867 C84.1124991,43.551921 85.483017,44.9229433 87.5547302,44.9229433 Z" id="Shape" fill="url(#linearGradient-11)"></path>
                    <path d="M108.962067,44.9229433 C113.932298,44.9229433 117.235496,42.773402 119.026014,38.9587231 L119.180369,38.9587231 L119.180369,41.6229433 C119.180369,43.6211085 120.476951,44.9229433 122.390953,44.9229433 C124.304955,44.9229433 125.570666,43.6211085 125.570666,41.5926681 L125.570666,15.4045947 C125.570666,13.2247782 124.212342,11.9229433 122.236598,11.9229433 C120.291725,11.9229433 118.90253,13.2247782 118.90253,15.4045947 L118.90253,31.0568883 C118.90253,36.0220259 116.000655,39.2917507 111.184779,39.2917507 C106.584999,39.2917507 104.238803,36.6880809 104.238803,31.8440442 L104.238803,15.4045947 C104.238803,13.2247782 102.849608,11.9229433 100.904735,11.9229433 C98.9289906,11.9229433 97.5706664,13.2247782 97.5706664,15.4045947 L97.5706664,33.1156039 C97.5706664,40.4119341 101.892607,44.9229433 108.962067,44.9229433 Z" id="Path" fill="url(#linearGradient-12)"></path>
                    <path d="M143.311581,44.9229433 C151.236552,44.9229433 156.570666,40.990771 156.570666,35.0925125 C156.570666,30.3739057 153.979811,27.9843549 147.243586,26.4417334 L142.275239,25.2923292 C138.891886,24.5058947 137.337372,23.1145107 137.337372,21.1181771 C137.337372,18.6378837 139.775825,16.9137774 143.311581,16.9137774 C146.54253,16.9137774 148.493292,18.1841716 149.925883,20.6039699 C150.565977,21.6323842 151.510877,21.995354 152.5777,21.995354 C154.223656,21.995354 155.138076,21.0274346 155.138076,19.5755556 C155.138076,19.2730808 155.077114,18.970606 155.016153,18.6076363 C154.101733,14.8569488 149.346751,11.9229433 143.555426,11.9229433 C135.935262,11.9229433 130.905954,15.7341257 130.905954,21.4811468 C130.905954,26.0182687 133.954019,29.0430166 140.172073,30.4948957 L145.231862,31.6745474 C148.676176,32.4912293 149.925883,33.610386 149.925883,35.6974621 C149.925883,38.3289928 147.395989,39.9321092 143.646868,39.9321092 C139.836786,39.9321092 137.916505,38.782705 136.270549,36.2116693 C135.447571,35.0017701 134.502671,34.4875629 133.405367,34.4875629 C131.759412,34.4875629 130.570666,35.4554823 130.570666,37.0888462 C130.570666,37.5123109 130.631628,37.9660231 130.844992,38.4499827 C132.369025,42.3519076 137.002085,44.9229433 143.311581,44.9229433 Z" id="Path" fill="url(#linearGradient-13)"></path>
                    <path d="M165.987989,44.9229433 C168.093304,44.9229433 169.405312,43.5960071 169.405312,41.4246568 L169.405312,29.5727034 L178.863974,29.5727034 C187.498816,29.5727034 193.570666,23.7221208 193.570666,15.2176657 C193.570666,6.74336827 187.620863,0.92294332 179.077556,0.92294332 L165.987989,0.92294332 C163.852162,0.92294332 162.570666,2.24987958 162.570666,4.42122982 L162.570666,41.4246568 C162.570666,43.5960071 163.852162,44.9229433 165.987989,44.9229433 Z M169.405312,23.9030667 L169.405312,6.6227377 L177.277359,6.6227377 C183.196651,6.6227377 186.583462,9.75913249 186.583462,15.2478234 C186.583462,20.7365143 183.196651,23.9030667 177.246848,23.9030667 L169.405312,23.9030667 Z" id="Shape" fill="url(#linearGradient-14)"></path>
                    <path d="M208.159493,44.8926681 C212.292454,44.8926681 216.334912,42.6523011 218.175136,39.1100993 L218.325974,39.1100993 L218.325974,41.8045947 C218.386309,43.7422094 219.62318,44.9229433 221.433236,44.9229433 C223.27346,44.9229433 224.570666,43.6816589 224.570666,41.6229433 L224.570666,22.3981727 C224.570666,16.0100993 219.653348,11.9229433 211.960611,11.9229433 C206.258935,11.9229433 201.462287,14.2238608 199.803069,17.826613 C199.41089,18.5532185 199.229884,19.2798241 199.229884,19.9458791 C199.229884,21.5807415 200.406421,22.6706497 202.035471,22.6706497 C203.18184,22.6706497 204.026532,22.2467965 204.690219,21.2779892 C206.500275,18.3715672 208.58184,17.2513837 211.71927,17.2513837 C215.701393,17.2513837 218.084633,19.3706497 218.084633,22.9128516 L218.084633,25.3651452 L209.366197,25.8798241 C201.854465,26.3036773 197.570666,29.7247782 197.570666,35.2954204 C197.570666,41.0174387 201.944968,44.8926681 208.159493,44.8926681 Z M209.939382,39.7156039 C206.470108,39.7156039 204.147203,37.8990901 204.147203,35.113769 C204.147203,32.3889984 206.349437,30.6633103 210.241057,30.3908332 L218.084633,29.9064296 L218.084633,32.4192736 C218.084633,36.56698 214.494689,39.7156039 209.939382,39.7156039 Z" id="Shape" fill="url(#linearGradient-10)"></path>
                    <path d="M234.569627,56.9229433 C240.448005,56.9229433 243.432413,54.2776938 246.235947,46.4957389 L257.239066,16.813579 C257.450084,16.167646 257.570666,15.4909543 257.570666,14.9680561 C257.570666,13.1840506 256.274409,11.9229433 254.405386,11.9229433 C252.747382,11.9229433 251.843016,12.6611525 251.300396,14.4759167 L243.191249,38.8368189 L243.100812,38.8368189 L235.02181,14.4759167 C234.449045,12.6303938 233.514533,11.9229433 231.886675,11.9229433 C229.987506,11.9229433 228.570666,13.1840506 228.570666,14.9988148 C228.570666,15.521713 228.691249,16.1984047 228.932413,16.8750964 L239.543639,45.2038729 L238.940729,47.0801545 C237.765053,50.4020957 235.926176,51.4171333 234.117444,51.4171333 C233.363806,51.4171333 233.122641,51.3863746 232.429294,51.3863746 C230.861727,51.3863746 229.89707,52.3091361 229.89707,53.724037 C229.89707,55.7848709 231.555074,56.9229433 234.569627,56.9229433 Z" id="Path" fill="url(#linearGradient-15)"></path>
                </g>
            </g>
        </g>
    </g>
</svg>