<?xml version="1.0" encoding="UTF-8"?>
<svg width="448px" height="89px" viewBox="0 0 448 89" version="1.1" xmlns="http://www.w3.org/2000/svg" xmlns:xlink="http://www.w3.org/1999/xlink">
    <title>Group 2</title>
    <defs>
        <polygon id="path-1" points="0 0 95 0 95 66 0 66"></polygon>
        <polygon id="path-3" points="0 0 95 0 95 66 0 66"></polygon>
        <polygon id="path-5" points="0 0 95 0 95 66 0 66"></polygon>
    </defs>
    <g id="Page-1" stroke="none" stroke-width="1" fill="none" fill-rule="evenodd">
        <g id="Artboard" transform="translate(-30.000000, -190.000000)">
            <g id="Group-2" transform="translate(30.000000, 190.000000)">
                <g id="Group">
                    <g id="Group-13" transform="translate(0.000000, 22.000000)">
                        <g id="Group-6">
                            <mask id="mask-2" fill="white">
                                <use xlink:href="#path-1"></use>
                            </mask>
                            <g id="Clip-5"></g>
                            <path d="M5.95054889,16.4535398 L89.0597836,16.4535398 C89.0597836,14.6820176 89.0597836,12.9695711 89.0597836,11.2571247 C89.0586822,7.73585817 87.3655212,6.01690337 83.8956812,6.01690337 C59.6328229,6.01665305 35.3697168,6.01690337 11.1066107,6.01715369 C10.7668385,6.01715369 10.4258272,6.00714085 10.0870463,6.02941942 C7.92226857,6.1728534 6.06702805,7.94337434 5.97037513,10.1279263 C5.87818311,12.2113486 5.95054889,14.3020302 5.95054889,16.4535398 L5.95054889,16.4535398 Z M5.93714635,22.5578695 L5.93714635,23.6079664 C5.93714635,34.0380945 5.93714635,44.4682226 5.93714635,54.8981004 C5.93714635,58.2138533 7.69550594,59.9988929 10.962127,59.9991432 C35.320399,59.9997065 59.6784233,59.9997065 84.0364475,59.9991432 C87.3077773,59.9988929 89.05893,58.2191101 89.0598947,54.8955972 C89.0598947,44.4654691 89.0598947,34.0355913 89.0598947,23.6054632 L89.0598947,22.5578695 L5.93714635,22.5578695 Z M-4.95656029e-05,9.2032403 C0.310974592,8.19820119 0.504032616,7.1350876 0.953344806,6.19763518 C2.86608142,2.20851858 6.06380629,0.0887997357 10.4528404,0.0372335948 C16.5122354,-0.0338575897 22.5728695,0.0187098354 28.6327601,0.0187098354 C47.1531954,0.0187098354 65.6733829,0.0162066247 84.1935704,0.0204620829 C89.440833,0.0217136883 93.5463519,3.186523 94.7044522,8.15664789 C94.9074233,9.02801555 94.9840022,9.94819581 94.9849935,10.8460975 C95.001598,25.6200472 95.0045719,40.3942472 94.9931718,55.1684472 C94.9884631,61.4342339 90.4814628,65.99208 84.2865059,65.9940826 C59.768137,66.0025935 35.2495202,66.0010916 10.7311513,65.9948336 C5.2633218,65.9933316 1.16375079,62.5476621 0.146664619,57.1469849 C0.124607926,57.0303353 0.0500116933,56.9241992 -4.95656029e-05,56.8130566 C-4.95656029e-05,40.9432013 -4.95656029e-05,25.073346 -4.95656029e-05,9.2032403 L-4.95656029e-05,9.2032403 Z" id="Fill-4" fill="#414141" mask="url(#mask-2)"></path>
                        </g>
                        <path d="M5.82849856,16.1333333 C5.82849856,14.0172671 5.75622147,11.9610268 5.8483005,9.91192629 C5.94483497,7.76336201 7.79780178,6.02200815 9.95992641,5.88093707 C10.2982921,5.85902551 10.6388855,5.8688734 10.9782413,5.8688734 C35.2116115,5.8686272 59.4449817,5.86838101 83.6781043,5.8686272 C87.1436918,5.8686272 88.8347778,7.55926441 88.8358779,11.0225225 C88.8358779,12.7067586 88.8358779,14.3909947 88.8358779,16.1333333 L5.82849856,16.1333333 Z" id="Fill-9" fill="#FFFFFF"></path>
                        <path d="M19.4084301,50.9326561 C15.9777723,51.2117971 14.8644183,49.7784864 14.8664122,46.4171847 C14.8681619,42.96149 15.9610508,41.7987391 19.4568477,41.8 C22.8028996,41.8010106 24.1595892,43.0056579 23.9002808,46.327587 C23.8610975,46.8280722 23.9040244,47.3346146 23.8917952,47.8381284 C23.8481196,49.6550687 22.6144704,50.8920217 20.809045,50.9308894 C20.3423397,50.9407325 19.8753849,50.9324037 19.4084301,50.9326561" id="Fill-11" fill="#000000"></path>
                    </g>
                    <g id="Group-13" transform="translate(12.000000, 11.000000)">
                        <g id="Group-6">
                            <mask id="mask-4" fill="white">
                                <use xlink:href="#path-3"></use>
                            </mask>
                            <g id="Clip-5"></g>
                            <path d="M5.95054889,16.4535398 L89.0597836,16.4535398 C89.0597836,14.6820176 89.0597836,12.9695711 89.0597836,11.2571247 C89.0586822,7.73585817 87.3655212,6.01690337 83.8956812,6.01690337 C59.6328229,6.01665305 35.3697168,6.01690337 11.1066107,6.01715369 C10.7668385,6.01715369 10.4258272,6.00714085 10.0870463,6.02941942 C7.92226857,6.1728534 6.06702805,7.94337434 5.97037513,10.1279263 C5.87818311,12.2113486 5.95054889,14.3020302 5.95054889,16.4535398 L5.95054889,16.4535398 Z M5.93714635,22.5578695 L5.93714635,23.6079664 C5.93714635,34.0380945 5.93714635,44.4682226 5.93714635,54.8981004 C5.93714635,58.2138533 7.69550594,59.9988929 10.962127,59.9991432 C35.320399,59.9997065 59.6784233,59.9997065 84.0364475,59.9991432 C87.3077773,59.9988929 89.05893,58.2191101 89.0598947,54.8955972 C89.0598947,44.4654691 89.0598947,34.0355913 89.0598947,23.6054632 L89.0598947,22.5578695 L5.93714635,22.5578695 Z M-4.95656029e-05,9.2032403 C0.310974592,8.19820119 0.504032616,7.1350876 0.953344806,6.19763518 C2.86608142,2.20851858 6.06380629,0.0887997357 10.4528404,0.0372335948 C16.5122354,-0.0338575897 22.5728695,0.0187098354 28.6327601,0.0187098354 C47.1531954,0.0187098354 65.6733829,0.0162066247 84.1935704,0.0204620829 C89.440833,0.0217136883 93.5463519,3.186523 94.7044522,8.15664789 C94.9074233,9.02801555 94.9840022,9.94819581 94.9849935,10.8460975 C95.001598,25.6200472 95.0045719,40.3942472 94.9931718,55.1684472 C94.9884631,61.4342339 90.4814628,65.99208 84.2865059,65.9940826 C59.768137,66.0025935 35.2495202,66.0010916 10.7311513,65.9948336 C5.2633218,65.9933316 1.16375079,62.5476621 0.146664619,57.1469849 C0.124607926,57.0303353 0.0500116933,56.9241992 -4.95656029e-05,56.8130566 C-4.95656029e-05,40.9432013 -4.95656029e-05,25.073346 -4.95656029e-05,9.2032403 L-4.95656029e-05,9.2032403 Z" id="Fill-4" fill="#414141" mask="url(#mask-4)"></path>
                        </g>
                        <path d="M5.80152672,22.3666667 L88.8358779,22.3666667 L88.8358779,23.4130915 C88.8358779,33.8313326 88.8358779,44.2498236 88.8358779,54.6683147 C88.8348678,57.9881194 87.0855761,59.7659165 83.8179704,59.7659165 C59.4858325,59.7666667 35.1534469,59.7666667 10.821309,59.7659165 C7.55791193,59.7659165 5.80243109,57.9828686 5.80152672,54.6708151 C5.80152672,44.252324 5.80152672,33.834083 5.80152672,23.415592 L5.80152672,22.3666667 Z" id="Fill-7" fill="#FFFFFF"></path>
                        <path d="M5.82849856,16.1333333 C5.82849856,14.0172671 5.75622147,11.9610268 5.8483005,9.91192629 C5.94483497,7.76336201 7.79780178,6.02200815 9.95992641,5.88093707 C10.2982921,5.85902551 10.6388855,5.8688734 10.9782413,5.8688734 C35.2116115,5.8686272 59.4449817,5.86838101 83.6781043,5.8686272 C87.1436918,5.8686272 88.8347778,7.55926441 88.8358779,11.0225225 C88.8358779,12.7067586 88.8358779,14.3909947 88.8358779,16.1333333 L5.82849856,16.1333333 Z" id="Fill-9" fill="#FFFFFF"></path>
                        <path d="M19.4084301,50.9326561 C15.9777723,51.2117971 14.8644183,49.7784864 14.8664122,46.4171847 C14.8681619,42.96149 15.9610508,41.7987391 19.4568477,41.8 C22.8028996,41.8010106 24.1595892,43.0056579 23.9002808,46.327587 C23.8610975,46.8280722 23.9040244,47.3346146 23.8917952,47.8381284 C23.8481196,49.6550687 22.6144704,50.8920217 20.809045,50.9308894 C20.3423397,50.9407325 19.8753849,50.9324037 19.4084301,50.9326561" id="Fill-11" fill="#000000"></path>
                    </g>
                    <g id="Group-13" transform="translate(25.000000, 0.000000)">
                        <g id="Group-6">
                            <mask id="mask-6" fill="white">
                                <use xlink:href="#path-5"></use>
                            </mask>
                            <g id="Clip-5"></g>
                            <path d="M5.95054889,16.4535398 L89.0597836,16.4535398 C89.0597836,14.6820176 89.0597836,12.9695711 89.0597836,11.2571247 C89.0586822,7.73585817 87.3655212,6.01690337 83.8956812,6.01690337 C59.6328229,6.01665305 35.3697168,6.01690337 11.1066107,6.01715369 C10.7668385,6.01715369 10.4258272,6.00714085 10.0870463,6.02941942 C7.92226857,6.1728534 6.06702805,7.94337434 5.97037513,10.1279263 C5.87818311,12.2113486 5.95054889,14.3020302 5.95054889,16.4535398 L5.95054889,16.4535398 Z M5.93714635,22.5578695 L5.93714635,23.6079664 C5.93714635,34.0380945 5.93714635,44.4682226 5.93714635,54.8981004 C5.93714635,58.2138533 7.69550594,59.9988929 10.962127,59.9991432 C35.320399,59.9997065 59.6784233,59.9997065 84.0364475,59.9991432 C87.3077773,59.9988929 89.05893,58.2191101 89.0598947,54.8955972 C89.0598947,44.4654691 89.0598947,34.0355913 89.0598947,23.6054632 L89.0598947,22.5578695 L5.93714635,22.5578695 Z M-4.95656029e-05,9.2032403 C0.310974592,8.19820119 0.504032616,7.1350876 0.953344806,6.19763518 C2.86608142,2.20851858 6.06380629,0.0887997357 10.4528404,0.0372335948 C16.5122354,-0.0338575897 22.5728695,0.0187098354 28.6327601,0.0187098354 C47.1531954,0.0187098354 65.6733829,0.0162066247 84.1935704,0.0204620829 C89.440833,0.0217136883 93.5463519,3.186523 94.7044522,8.15664789 C94.9074233,9.02801555 94.9840022,9.94819581 94.9849935,10.8460975 C95.001598,25.6200472 95.0045719,40.3942472 94.9931718,55.1684472 C94.9884631,61.4342339 90.4814628,65.99208 84.2865059,65.9940826 C59.768137,66.0025935 35.2495202,66.0010916 10.7311513,65.9948336 C5.2633218,65.9933316 1.16375079,62.5476621 0.146664619,57.1469849 C0.124607926,57.0303353 0.0500116933,56.9241992 -4.95656029e-05,56.8130566 C-4.95656029e-05,40.9432013 -4.95656029e-05,25.073346 -4.95656029e-05,9.2032403 L-4.95656029e-05,9.2032403 Z" id="Fill-4" fill="#414141" mask="url(#mask-6)"></path>
                        </g>
                        <path d="M5.80152672,22.3666667 L88.8358779,22.3666667 L88.8358779,23.4130915 C88.8358779,33.8313326 88.8358779,44.2498236 88.8358779,54.6683147 C88.8348678,57.9881194 87.0855761,59.7659165 83.8179704,59.7659165 C59.4858325,59.7666667 35.1534469,59.7666667 10.821309,59.7659165 C7.55791193,59.7659165 5.80243109,57.9828686 5.80152672,54.6708151 C5.80152672,44.252324 5.80152672,33.834083 5.80152672,23.415592 L5.80152672,22.3666667 Z" id="Fill-7" fill="#FFFFFF"></path>
                        <path d="M5.82849856,16.1333333 C5.82849856,14.0172671 5.75622147,11.9610268 5.8483005,9.91192629 C5.94483497,7.76336201 7.79780178,6.02200815 9.95992641,5.88093707 C10.2982921,5.85902551 10.6388855,5.8688734 10.9782413,5.8688734 C35.2116115,5.8686272 59.4449817,5.86838101 83.6781043,5.8686272 C87.1436918,5.8686272 88.8347778,7.55926441 88.8358779,11.0225225 C88.8358779,12.7067586 88.8358779,14.3909947 88.8358779,16.1333333 L5.82849856,16.1333333 Z" id="Fill-9" fill="#FFFFFF"></path>
                        <path d="M19.4084301,50.9326561 C15.9777723,51.2117971 14.8644183,49.7784864 14.8664122,46.4171847 C14.8681619,42.96149 15.9610508,41.7987391 19.4568477,41.8 C22.8028996,41.8010106 24.1595892,43.0056579 23.9002808,46.327587 C23.8610975,46.8280722 23.9040244,47.3346146 23.8917952,47.8381284 C23.8481196,49.6550687 22.6144704,50.8920217 20.809045,50.9308894 C20.3423397,50.9407325 19.8753849,50.9324037 19.4084301,50.9326561" id="Fill-11" fill="#414141"></path>
                    </g>
                </g>
                <g id="MaiusPay" transform="translate(142.029000, 14.840000)" fill="#414141" fill-rule="nonzero">
                    <polygon id="Path" points="5.68434189e-14 56.16 5.68434189e-14 1.56 7.644 1.56 27.3 39.624 46.8 1.56 54.522 1.56 54.522 56.16 47.97 56.16 47.97 13.26 29.718 48.36 24.804 48.36 6.552 13.338 6.552 56.16"></polygon>
                    <path d="M74.946,57.096 C71.722,57.096 69.044,56.55 66.912,55.458 C64.78,54.366 63.194,52.91 62.154,51.09 C61.114,49.27 60.594,47.294 60.594,45.162 C60.594,41.21 62.102,38.168 65.118,36.036 C68.134,33.904 72.242,32.838 77.442,32.838 L87.894,32.838 L87.894,32.37 C87.894,28.99 87.01,26.429 85.242,24.687 C83.474,22.945 81.108,22.074 78.144,22.074 C75.596,22.074 73.399,22.711 71.553,23.985 C69.707,25.259 68.55,27.118 68.082,29.562 L61.374,29.562 C61.634,26.754 62.583,24.388 64.221,22.464 C65.859,20.54 67.9,19.071 70.344,18.057 C72.788,17.043 75.388,16.536 78.144,16.536 C83.552,16.536 87.621,17.979 90.351,20.865 C93.081,23.751 94.446,27.586 94.446,32.37 L94.446,56.16 L88.596,56.16 L88.206,49.218 C87.114,51.402 85.515,53.261 83.409,54.795 C81.303,56.329 78.482,57.096 74.946,57.096 Z M75.96,51.558 C78.456,51.558 80.601,50.908 82.395,49.608 C84.189,48.308 85.554,46.618 86.49,44.538 C87.426,42.458 87.894,40.274 87.894,37.986 L87.894,37.908 L77.988,37.908 C74.14,37.908 71.423,38.571 69.837,39.897 C68.251,41.223 67.458,42.874 67.458,44.85 C67.458,46.878 68.199,48.503 69.681,49.725 C71.163,50.947 73.256,51.558 75.96,51.558 Z" id="Shape"></path>
                    <path d="M104.652,8.892 C103.352,8.892 102.273,8.463 101.415,7.605 C100.557,6.747 100.128,5.668 100.128,4.368 C100.128,3.12 100.557,2.08 101.415,1.248 C102.273,0.416 103.352,0 104.652,0 C105.9,0 106.966,0.416 107.85,1.248 C108.734,2.08 109.176,3.12 109.176,4.368 C109.176,5.668 108.734,6.747 107.85,7.605 C106.966,8.463 105.9,8.892 104.652,8.892 Z M101.376,56.16 L101.376,17.472 L107.928,17.472 L107.928,56.16 L101.376,56.16 Z" id="Shape"></path>
                    <path d="M129.834,57.096 C125.258,57.096 121.618,55.705 118.914,52.923 C116.21,50.141 114.858,45.864 114.858,40.092 L114.858,17.472 L121.41,17.472 L121.41,39.39 C121.41,47.45 124.712,51.48 131.316,51.48 C134.696,51.48 137.491,50.271 139.701,47.853 C141.911,45.435 143.016,41.99 143.016,37.518 L143.016,17.472 L149.568,17.472 L149.568,56.16 L143.64,56.16 L143.172,49.218 C141.976,51.662 140.195,53.586 137.829,54.99 C135.463,56.394 132.798,57.096 129.834,57.096 Z" id="Path"></path>
                    <path d="M171.552,57.096 C166.924,57.096 163.076,55.926 160.008,53.586 C156.94,51.246 155.146,48.074 154.626,44.07 L161.334,44.07 C161.75,46.098 162.829,47.853 164.571,49.335 C166.313,50.817 168.666,51.558 171.63,51.558 C174.386,51.558 176.414,50.973 177.714,49.803 C179.014,48.633 179.664,47.242 179.664,45.63 C179.664,43.29 178.819,41.73 177.129,40.95 C175.439,40.17 173.06,39.468 169.992,38.844 C167.912,38.428 165.832,37.83 163.752,37.05 C161.672,36.27 159.93,35.165 158.526,33.735 C157.122,32.305 156.42,30.42 156.42,28.08 C156.42,24.7 157.681,21.931 160.203,19.773 C162.725,17.615 166.144,16.536 170.46,16.536 C174.568,16.536 177.935,17.563 180.561,19.617 C183.187,21.671 184.708,24.596 185.124,28.392 L178.65,28.392 C178.39,26.416 177.545,24.869 176.115,23.751 C174.685,22.633 172.774,22.074 170.382,22.074 C168.042,22.074 166.235,22.568 164.961,23.556 C163.687,24.544 163.05,25.844 163.05,27.456 C163.05,29.016 163.869,30.238 165.507,31.122 C167.145,32.006 169.368,32.76 172.176,33.384 C174.568,33.904 176.843,34.541 179.001,35.295 C181.159,36.049 182.927,37.167 184.305,38.649 C185.683,40.131 186.372,42.276 186.372,45.084 C186.424,48.568 185.111,51.441 182.433,53.703 C179.755,55.965 176.128,57.096 171.552,57.096 Z" id="Path"></path>
                    <path d="M192.522,56.16 L192.522,1.56 L210.462,1.56 C214.726,1.56 218.236,2.262 220.992,3.666 C223.748,5.07 225.789,6.968 227.115,9.36 C228.441,11.752 229.104,14.456 229.104,17.472 C229.104,20.436 228.454,23.114 227.154,25.506 C225.854,27.898 223.826,29.809 221.07,31.239 C218.314,32.669 214.778,33.384 210.462,33.384 L199.074,33.384 L199.074,56.16 L192.522,56.16 Z M199.074,27.846 L210.306,27.846 C214.674,27.846 217.781,26.923 219.627,25.077 C221.473,23.231 222.396,20.696 222.396,17.472 C222.396,14.196 221.473,11.635 219.627,9.789 C217.781,7.943 214.674,7.02 210.306,7.02 L199.074,7.02 L199.074,27.846 Z" id="Shape"></path>
                    <path d="M244.77,57.096 C241.546,57.096 238.868,56.55 236.736,55.458 C234.604,54.366 233.018,52.91 231.978,51.09 C230.938,49.27 230.418,47.294 230.418,45.162 C230.418,41.21 231.926,38.168 234.942,36.036 C237.958,33.904 242.066,32.838 247.266,32.838 L257.718,32.838 L257.718,32.37 C257.718,28.99 256.834,26.429 255.066,24.687 C253.298,22.945 250.932,22.074 247.968,22.074 C245.42,22.074 243.223,22.711 241.377,23.985 C239.531,25.259 238.374,27.118 237.906,29.562 L231.198,29.562 C231.458,26.754 232.407,24.388 234.045,22.464 C235.683,20.54 237.724,19.071 240.168,18.057 C242.612,17.043 245.212,16.536 247.968,16.536 C253.376,16.536 257.445,17.979 260.175,20.865 C262.905,23.751 264.27,27.586 264.27,32.37 L264.27,56.16 L258.42,56.16 L258.03,49.218 C256.938,51.402 255.339,53.261 253.233,54.795 C251.127,56.329 248.306,57.096 244.77,57.096 Z M245.784,51.558 C248.28,51.558 250.425,50.908 252.219,49.608 C254.013,48.308 255.378,46.618 256.314,44.538 C257.25,42.458 257.718,40.274 257.718,37.986 L257.718,37.908 L247.812,37.908 C243.964,37.908 241.247,38.571 239.661,39.897 C238.075,41.223 237.282,42.874 237.282,44.85 C237.282,46.878 238.023,48.503 239.505,49.725 C240.987,50.947 243.08,51.558 245.784,51.558 Z" id="Shape"></path>
                    <polygon id="Path" points="273.54 73.32 283.134 52.416 280.872 52.416 265.506 17.472 272.604 17.472 285.396 47.58 298.968 17.472 305.754 17.472 280.404 73.32"></polygon>
                </g>
            </g>
        </g>
    </g>
</svg>